# xmcd
#
# Track frame offsets:
#	150
#	16945
#	33987
#	53366
#	68125
#	81711
#	99280
#	112985
#	132045
#	147127
#
# Disc length: 2217 seconds
#
# Revision: 2
# Processed by: cddbd v1.5.2PL0 Copyright (c) Steve Scherf et al.
# Submitted via: audiograbber 1.83.01
#
DISCID=7708a70a
DTITLE=Johnny Reid - Dnce With Me
DYEAR=2009
DGENRE=Country
TTITLE0=A Woman Like You
TTITLE1=Old Flame
TTITLE2=Dance With Me
TTITLE3=Let's Take It Outside
TTITLE4=Hey-O
TTITLE5=Brings Me Home
TTITLE6=Keep Workin' On Me
TTITLE7=A Moon To Remember
TTITLE8=Slow Down
TTITLE9=My Old Friend
EXTD=
EXTT0=
EXTT1=
EXTT2=
EXTT3=
EXTT4=
EXTT5=
EXTT6=
EXTT7=
EXTT8=
EXTT9=
PLAYORDER=
